<svg width="28" height="29" viewBox="0 0 28 29" fill="none" xmlns="http://www.w3.org/2000/svg">
<path d="M27.3209 11.0034H2.32335C2.17268 11.0034 2.02818 11.0632 1.92164 11.1697C1.8151 11.2763 1.75525 11.4207 1.75525 11.5714V25.2056C1.75616 25.9585 2.05572 26.6804 2.58822 27.2129C3.12072 27.7453 3.84268 28.0449 4.59575 28.0458H25.0485C25.8016 28.0449 26.5235 27.7453 27.056 27.2129C27.5885 26.6804 27.8881 25.9585 27.889 25.2056V11.5668C27.8878 11.417 27.8274 11.2736 27.721 11.1681C27.6146 11.0626 27.4708 11.0034 27.3209 11.0034ZM26.7528 25.2056C26.7522 25.6573 26.5724 26.0904 26.253 26.4099C25.9335 26.7293 25.5003 26.9091 25.0485 26.9097H4.59575C4.14393 26.9091 3.71079 26.7293 3.3913 26.4099C3.07181 26.0904 2.89206 25.6573 2.89145 25.2056V12.1417H26.7528V25.2056Z" fill="black"/>
<path d="M27.8718 5.74611L26.9046 2.07799C26.7938 1.64597 26.519 1.27409 26.1386 1.04119C25.7582 0.80829 25.302 0.73267 24.8668 0.830363L1.97606 6.26126C1.75484 6.31155 1.54591 6.40555 1.36154 6.53774C1.17718 6.66993 1.0211 6.83765 0.902494 7.03102C0.783887 7.22439 0.70514 7.43952 0.670883 7.66377C0.636626 7.88801 0.64755 8.11684 0.703014 8.3368L1.77366 12.5672C1.80441 12.6897 1.87519 12.7985 1.97478 12.8762C2.07436 12.9539 2.19705 12.9961 2.32336 12.9961C2.37106 12.9964 2.41859 12.9906 2.46481 12.9789C2.53713 12.9606 2.60513 12.9283 2.66493 12.8837C2.72472 12.8391 2.77514 12.7832 2.81327 12.7191C2.85141 12.655 2.87653 12.584 2.88718 12.5102C2.89784 12.4364 2.89382 12.3612 2.87536 12.2889L2.81326 12.0429L27.452 6.44639C27.5261 6.42876 27.596 6.39657 27.6576 6.35169C27.7192 6.30682 27.7712 6.25016 27.8107 6.18501C27.8502 6.11985 27.8763 6.0475 27.8876 5.97215C27.8989 5.89681 27.895 5.81997 27.8764 5.74611H27.8718ZM2.53381 10.9401L1.80701 8.06083C1.78915 7.98733 1.78611 7.91101 1.79807 7.83633C1.81004 7.76165 1.83677 7.6901 1.87671 7.62587C1.91665 7.56163 1.96898 7.506 2.03067 7.46222C2.09235 7.41844 2.16214 7.3874 2.23596 7.3709L25.1256 1.9377C25.1662 1.92767 25.2079 1.92265 25.2498 1.92275C25.3776 1.92362 25.5015 1.96705 25.6019 2.04618C25.7022 2.12531 25.7734 2.23563 25.8041 2.35971L26.6229 5.46439L2.53381 10.9401Z" fill="black"/>
<path d="M7.12228 11.062C6.98706 10.996 6.83136 10.9857 6.6886 11.0332C6.54584 11.0807 6.4274 11.1823 6.35868 11.3161L4.08628 15.8604C4.02577 15.9945 4.01951 16.1468 4.06883 16.2854C4.11814 16.424 4.21919 16.5381 4.35079 16.6038C4.4824 16.6695 4.63434 16.6817 4.77476 16.6379C4.91518 16.5941 5.03318 16.4976 5.10403 16.3687L7.37642 11.8244C7.44203 11.6893 7.45217 11.5339 7.40467 11.3914C7.35718 11.2489 7.25583 11.1307 7.12228 11.062Z" fill="black"/>
<path d="M12.8033 11.062C12.6682 10.9964 12.5128 10.9863 12.3703 11.0337C12.2279 11.0812 12.1096 11.1826 12.0409 11.3161L9.76848 15.8604C9.73511 15.9272 9.71522 15.9999 9.70993 16.0743C9.70464 16.1487 9.71405 16.2235 9.73765 16.2943C9.76125 16.3651 9.79857 16.4305 9.84746 16.4869C9.89636 16.5433 9.95589 16.5895 10.0226 16.6228C10.0894 16.6562 10.1621 16.6761 10.2365 16.6814C10.3109 16.6867 10.3857 16.6773 10.4565 16.6537C10.5273 16.6301 10.5928 16.5927 10.6491 16.5439C10.7055 16.495 10.7517 16.4354 10.7851 16.3687L13.0575 11.8244C13.1231 11.6893 13.1332 11.5339 13.0857 11.3914C13.0382 11.2489 12.9369 11.1307 12.8033 11.062Z" fill="black"/>
<path d="M18.4844 11.062C18.3493 10.9964 18.1938 10.9863 18.0514 11.0337C17.9089 11.0812 17.7906 11.1826 17.7219 11.3161L15.4495 15.8604C15.3821 15.9952 15.371 16.1513 15.4187 16.2943C15.4664 16.4372 15.5689 16.5554 15.7037 16.6228C15.8385 16.6902 15.9945 16.7013 16.1375 16.6537C16.2805 16.606 16.3987 16.5035 16.4661 16.3687L18.7385 11.8244C18.8041 11.6893 18.8143 11.5339 18.7668 11.3914C18.7193 11.2489 18.6179 11.1307 18.4844 11.062Z" fill="black"/>
<path d="M24.1653 11.062C24.0302 10.9964 23.8748 10.9863 23.7323 11.0337C23.5898 11.0812 23.4716 11.1826 23.4028 11.3161L21.1304 15.8604C21.063 15.9952 21.0519 16.1513 21.0996 16.2943C21.1473 16.4372 21.2498 16.5554 21.3846 16.6228C21.5194 16.6902 21.6754 16.7013 21.8184 16.6537C21.9614 16.606 22.0796 16.5035 22.147 16.3687L24.4194 11.8244C24.485 11.6893 24.4952 11.5339 24.4477 11.3914C24.4002 11.2489 24.2988 11.1307 24.1653 11.062Z" fill="black"/>
<path d="M27.3209 15.5477H2.32335C2.17268 15.5477 2.02818 15.6075 1.92164 15.7141C1.8151 15.8206 1.75525 15.9651 1.75525 16.1157C1.75525 16.2664 1.8151 16.4108 1.92164 16.5174C2.02818 16.6239 2.17268 16.6838 2.32335 16.6838H27.3209C27.4716 16.6838 27.6161 16.6239 27.7226 16.5174C27.8291 16.4108 27.889 16.2664 27.889 16.1157C27.889 15.9651 27.8291 15.8206 27.7226 15.7141C27.6161 15.6075 27.4716 15.5477 27.3209 15.5477Z" fill="black"/>
<path d="M7.8169 10.011L3.9069 6.1014C3.80015 5.99466 3.65537 5.93469 3.5044 5.93469C3.35344 5.93469 3.20865 5.99466 3.1019 6.1014C2.99515 6.20813 2.93518 6.35291 2.93518 6.50386C2.93518 6.65481 2.99515 6.79958 3.1019 6.90632L7.0119 10.8159C7.11919 10.9217 7.26372 10.9812 7.4144 10.9815C7.48902 10.9817 7.56293 10.9671 7.63184 10.9385C7.70074 10.9098 7.76326 10.8678 7.81575 10.8148C7.86865 10.7621 7.91064 10.6995 7.93932 10.6306C7.96801 10.5617 7.98283 10.4878 7.98294 10.4131C7.98305 10.3385 7.96844 10.2645 7.93995 10.1955C7.91146 10.1265 7.86965 10.0638 7.8169 10.011Z" fill="black"/>
<path d="M13.376 8.74844L9.45914 4.83884C9.35239 4.7321 9.2076 4.67213 9.05664 4.67213C8.90567 4.67213 8.7609 4.7321 8.65415 4.83884C8.5474 4.94558 8.48743 5.09034 8.48743 5.24129C8.48743 5.39225 8.5474 5.53701 8.65415 5.64375L12.5641 9.55336C12.6709 9.66009 12.8157 9.72006 12.9666 9.72006C13.1176 9.72006 13.2624 9.66009 13.3691 9.55336C13.4759 9.44662 13.5359 9.30185 13.5359 9.1509C13.5359 8.99995 13.4759 8.85518 13.3691 8.74844H13.376Z" fill="black"/>
<path d="M18.9293 7.48586L15.0193 3.57626C14.9126 3.46953 14.7678 3.40956 14.6168 3.40956C14.4658 3.40956 14.3211 3.46953 14.2143 3.57626C14.1076 3.683 14.0476 3.82777 14.0476 3.97872C14.0476 4.12967 14.1076 4.27444 14.2143 4.38118L18.1243 8.29078C18.2316 8.39658 18.3761 8.45604 18.5268 8.45637C18.6014 8.4568 18.6752 8.44238 18.7442 8.41395C18.8131 8.38552 18.8756 8.34365 18.9282 8.29078C18.9812 8.23808 19.0234 8.17542 19.0521 8.1064C19.0809 8.03737 19.0958 7.96335 19.0959 7.88856C19.0961 7.81378 19.0814 7.73971 19.0528 7.6706C19.0242 7.6015 18.9822 7.53872 18.9293 7.48586Z" fill="black"/>
<path d="M24.4816 6.22558L20.5716 2.31598C20.4648 2.20924 20.3201 2.14928 20.1691 2.14928C20.0181 2.14928 19.8733 2.20924 19.7666 2.31598C19.6598 2.42272 19.5999 2.56749 19.5999 2.71844C19.5999 2.86939 19.6598 3.01416 19.7666 3.1209L23.6766 7.0305C23.7833 7.13724 23.9281 7.19721 24.0791 7.19721C24.2301 7.19721 24.3748 7.13724 24.4816 7.0305C24.5883 6.92376 24.6483 6.77899 24.6483 6.62804C24.6483 6.47709 24.5883 6.33232 24.4816 6.22558Z" fill="black"/>
</svg>
