<svg width="35" height="35" viewBox="0 0 35 35" fill="none" xmlns="http://www.w3.org/2000/svg">
<path d="M25.0344 11.7473L24.6687 10.5445C24.4925 10.0287 24.1594 9.58102 23.716 9.264C23.2727 8.94698 22.7413 8.77654 22.1962 8.77654C21.6511 8.77654 21.1197 8.94698 20.6764 9.264C20.233 9.58102 19.8999 10.0287 19.7237 10.5445L19.358 11.7473C19.0504 12.7617 18.9858 13.8343 19.1694 14.8784C19.2521 15.3124 19.4313 15.7222 19.6939 16.0775C19.9565 16.4328 20.2957 16.7245 20.6863 16.9309L20.2769 26.0805C20.2504 26.3334 20.2777 26.589 20.3569 26.8306C20.4362 27.0722 20.5657 27.2943 20.7369 27.4823C20.9131 27.675 21.1256 27.8311 21.3621 27.9417C21.5987 28.0523 21.8547 28.1152 22.1156 28.1268C22.3765 28.1385 22.6372 28.0986 22.8826 28.0095C23.1281 27.9204 23.3536 27.7838 23.5463 27.6076C23.59 27.5677 23.6318 27.526 23.6717 27.4823C23.8391 27.2995 23.9665 27.0838 24.0458 26.849C24.125 26.6141 24.1542 26.3653 24.1317 26.1185L23.72 16.9298C24.1101 16.7233 24.4487 16.4317 24.7109 16.0766C24.9731 15.7215 25.152 15.312 25.2345 14.8784C25.4144 13.8334 25.3459 12.7608 25.0344 11.7473ZM24.1018 14.6795C24.0413 14.9898 23.9003 15.2787 23.6931 15.5174C23.4858 15.7562 23.2195 15.9363 22.9207 16.0398C22.8087 16.0829 22.713 16.1599 22.647 16.2602C22.581 16.3604 22.5481 16.4787 22.5527 16.5986L22.9851 26.2082C22.9949 26.3012 22.9848 26.3953 22.9555 26.4841C22.9261 26.5729 22.8782 26.6545 22.8149 26.7233C22.6502 26.8863 22.4279 26.9776 22.1962 26.9776C21.9645 26.9776 21.7422 26.8863 21.5775 26.7233C21.5108 26.649 21.4612 26.561 21.4322 26.4654C21.4032 26.3699 21.3955 26.2691 21.4096 26.1702L21.8386 16.5986C21.8432 16.4787 21.8102 16.3604 21.7443 16.2602C21.6783 16.1599 21.5826 16.0829 21.4706 16.0398C21.1718 15.9363 20.9055 15.7562 20.6982 15.5174C20.491 15.2787 20.35 14.9898 20.2895 14.6795C20.1372 13.8129 20.1908 12.9227 20.4459 12.0807L20.8116 10.8768C20.9164 10.5941 21.1052 10.3502 21.3528 10.1779C21.6003 10.0057 21.8946 9.91336 22.1962 9.91336C22.4978 9.91336 22.7921 10.0057 23.0397 10.1779C23.2872 10.3502 23.476 10.5941 23.5808 10.8768L23.9465 12.0807C24.2021 12.9226 24.2565 13.8127 24.1052 14.6795H24.1018Z" fill="black"/>
<path d="M16.2209 8.77482C16.0684 8.77482 15.9221 8.83539 15.8143 8.94321C15.7065 9.05103 15.6459 9.19727 15.6459 9.34976V14.2368L14.1049 15.7776C14.0487 15.834 14.005 15.9015 13.9763 15.9757C13.9475 16.0499 13.9346 16.1293 13.9381 16.2088L14.4361 26.1702C14.4413 26.2757 14.4249 26.3811 14.3879 26.4799C14.3509 26.5788 14.2941 26.6691 14.221 26.7452C14.0702 26.8948 13.8665 26.9787 13.6541 26.9787C13.4417 26.9787 13.2379 26.8948 13.0871 26.7452C13.014 26.6691 12.9572 26.5788 12.9203 26.4799C12.8833 26.3811 12.8669 26.2757 12.8721 26.1702L13.3735 16.2088C13.377 16.1293 13.3641 16.0499 13.3354 15.9757C13.3067 15.9015 13.2628 15.834 13.2067 15.7776L11.6646 14.2368V9.34976C11.6762 9.26823 11.6702 9.18515 11.6469 9.10615C11.6236 9.02715 11.5836 8.95408 11.5296 8.89187C11.4757 8.82967 11.409 8.77978 11.334 8.74559C11.2591 8.71141 11.1777 8.69371 11.0953 8.69371C11.013 8.69371 10.9316 8.71141 10.8566 8.74559C10.7817 8.77978 10.715 8.82967 10.661 8.89187C10.607 8.95408 10.567 9.02715 10.5438 9.10615C10.5205 9.18515 10.5145 9.26823 10.5261 9.34976V14.4725C10.5267 14.6233 10.5866 14.7679 10.6928 14.8749L12.2223 16.4043L11.737 26.1151C11.7142 26.6232 11.8937 27.1196 12.2361 27.4957C12.5786 27.8718 13.0561 28.0969 13.5642 28.1217C14.0722 28.1465 14.5694 27.9689 14.9469 27.628C15.3243 27.287 15.5513 26.8104 15.578 26.3025C15.578 26.2404 15.578 26.1779 15.578 26.1151L15.0927 16.4043L16.6222 14.8749C16.7284 14.7679 16.7883 14.6233 16.789 14.4725V9.34976C16.789 9.19846 16.7294 9.05326 16.623 8.94563C16.5167 8.83801 16.3722 8.77663 16.2209 8.77482Z" fill="black"/>
<path d="M12.8111 8.77481C12.6586 8.77481 12.5124 8.83538 12.4046 8.94321C12.2967 9.05103 12.2361 9.19727 12.2361 9.34975V13.9033C12.2557 14.0403 12.324 14.1657 12.4286 14.2565C12.5331 14.3472 12.6669 14.3971 12.8054 14.3971C12.9438 14.3971 13.0776 14.3472 13.1822 14.2565C13.2868 14.1657 13.3551 14.0403 13.3747 13.9033V9.34975C13.3747 9.19924 13.3157 9.05471 13.2103 8.94722C13.105 8.83972 12.9616 8.77782 12.8111 8.77481Z" fill="black"/>
<path d="M14.5188 8.77481C14.3663 8.77481 14.2201 8.83538 14.1123 8.94321C14.0044 9.05103 13.9438 9.19727 13.9438 9.34975V13.9033C13.9634 14.0403 14.0317 14.1657 14.1363 14.2565C14.2408 14.3472 14.3746 14.3971 14.5131 14.3971C14.6515 14.3971 14.7853 14.3472 14.8899 14.2565C14.9945 14.1657 15.0628 14.0403 15.0824 13.9033V9.34975C15.0824 9.19924 15.0234 9.05471 14.918 8.94722C14.8127 8.83972 14.6693 8.77782 14.5188 8.77481Z" fill="black"/>
<path d="M17.9286 0.235779C14.5507 0.235324 11.2485 1.23648 8.4396 3.11264C5.63072 4.9888 3.44135 7.65569 2.14836 10.776C0.855364 13.8964 0.516821 17.3301 1.17555 20.6428C1.83427 23.9556 3.46067 26.9986 5.84907 29.3871C8.23747 31.7756 11.2806 33.4022 14.5936 34.0613C17.9066 34.7204 21.3406 34.3824 24.4615 33.0899C27.5823 31.7975 30.2498 29.6087 32.1265 26.8004C34.0033 23.992 35.005 20.6903 35.005 17.3127C35.005 12.784 33.2059 8.44078 30.0036 5.2383C26.8012 2.03583 22.4578 0.236389 17.9286 0.235779ZM17.9286 33.2512C14.7759 33.2512 11.6941 32.3164 9.07274 30.5651C6.4514 28.8137 4.40831 26.3245 3.20184 23.4121C1.99536 20.4997 1.6797 17.295 2.29475 14.2032C2.9098 11.1115 4.42796 8.27149 6.65723 6.04245C8.8865 3.81341 11.7268 2.29541 14.8188 1.68042C17.9109 1.06543 21.116 1.38106 24.0286 2.58741C26.9413 3.79376 29.4308 5.83664 31.1824 8.45772C32.9339 11.0788 33.8688 14.1603 33.8688 17.3127C33.8688 21.5399 32.1894 25.5939 29.2 28.5829C26.2106 31.572 22.1562 33.2512 17.9286 33.2512Z" fill="black"/>
<path d="M19.7766 28.0031C19.7606 27.8534 19.6865 27.7158 19.5701 27.6201C19.4538 27.5245 19.3045 27.4782 19.1545 27.4914H19.1326C18.3303 27.5847 17.5199 27.5847 16.7176 27.4914C16.6381 27.4709 16.5551 27.4676 16.4742 27.4818C16.3934 27.4961 16.3165 27.5274 16.2487 27.5739C16.181 27.6203 16.124 27.6806 16.0815 27.7509C16.0391 27.8212 16.0122 27.8998 16.0027 27.9814C15.9931 28.0629 16.0012 28.1456 16.0263 28.2238C16.0514 28.3019 16.0929 28.3738 16.1481 28.4346C16.2033 28.4954 16.2709 28.5437 16.3463 28.5761C16.4218 28.6086 16.5033 28.6246 16.5854 28.6229C17.4744 28.7268 18.3724 28.7268 19.2614 28.6229C19.4114 28.6078 19.5495 28.5343 19.6458 28.4184C19.7422 28.3025 19.7892 28.1533 19.7766 28.0031Z" fill="black"/>
<path d="M26.6376 9.97759C26.5396 9.86238 26.4002 9.79043 26.2495 9.7773C26.0989 9.76417 25.949 9.81094 25.8326 9.90746C25.7177 10.0058 25.6462 10.1453 25.6335 10.296C25.6208 10.4466 25.668 10.5962 25.7648 10.7124C27.4203 12.6775 28.2771 15.1928 28.1653 17.7598C28.0535 20.3269 26.9812 22.7582 25.161 24.5719C25.0951 24.6213 25.0406 24.6843 25.0012 24.7567C24.9617 24.829 24.9383 24.9089 24.9325 24.9911C24.9266 25.0733 24.9385 25.1557 24.9673 25.2329C24.9961 25.3101 25.0412 25.3802 25.0994 25.4384C25.1577 25.4967 25.2278 25.5417 25.3049 25.5705C25.3821 25.5993 25.4646 25.6112 25.5468 25.6054C25.629 25.5995 25.7089 25.5761 25.7813 25.5367C25.8536 25.4972 25.9166 25.4427 25.966 25.3768C27.9888 23.3618 29.1805 20.6604 29.3048 17.8081C29.4292 14.9559 28.4773 12.161 26.6376 9.97759Z" fill="black"/>
<path d="M20.6139 6.24392C18.389 5.71078 16.0557 5.85412 13.9128 6.65557C13.8395 6.67914 13.7717 6.71735 13.7136 6.76788C13.6554 6.81841 13.6081 6.88022 13.5746 6.94956C13.541 7.0189 13.5219 7.09432 13.5184 7.17126C13.5148 7.2482 13.5269 7.32507 13.554 7.3972C13.581 7.46932 13.6224 7.53521 13.6756 7.59088C13.7289 7.64654 13.7929 7.69083 13.8637 7.72104C13.9346 7.75125 14.0108 7.76678 14.0879 7.76666C14.1649 7.76654 14.2411 7.75079 14.3119 7.72036C16.2415 6.99877 18.3426 6.86984 20.3459 7.3501C20.4225 7.38071 20.5047 7.39451 20.587 7.39056C20.6693 7.38661 20.7499 7.36501 20.8231 7.32722C20.8964 7.28942 20.9606 7.23633 21.0116 7.17152C21.0625 7.10672 21.0989 7.03172 21.1183 6.95161C21.1377 6.87151 21.1397 6.78818 21.124 6.70725C21.1084 6.62633 21.0755 6.54971 21.0277 6.48259C20.9799 6.41548 20.9182 6.35942 20.8468 6.31824C20.7754 6.27706 20.6959 6.25172 20.6139 6.24392Z" fill="black"/>
<path d="M10.6698 24.542C8.94887 22.8165 7.89936 20.5342 7.70967 18.1048C7.51998 15.6753 8.20253 13.2578 9.63479 11.2862C9.70134 11.1649 9.72195 11.0238 9.69286 10.8886C9.66376 10.7534 9.5869 10.6332 9.47637 10.5501C9.36584 10.4669 9.22906 10.4264 9.09108 10.436C8.9531 10.4455 8.82318 10.5044 8.72514 10.602L8.71479 10.6158C7.12123 12.8061 6.36092 15.4927 6.57044 18.1932C6.77995 20.8936 7.94556 23.4309 9.85789 25.3492C9.90732 25.4151 9.97033 25.4696 10.0427 25.5091C10.115 25.5485 10.195 25.5719 10.2771 25.5778C10.3593 25.5836 10.4418 25.5717 10.519 25.5429C10.5961 25.5141 10.6662 25.4691 10.7245 25.4108C10.7827 25.3526 10.8278 25.2825 10.8566 25.2053C10.8854 25.1281 10.8973 25.0457 10.8914 24.9635C10.8856 24.8813 10.8622 24.8014 10.8227 24.7291C10.7833 24.6568 10.7288 24.5937 10.6629 24.5443L10.6698 24.542Z" fill="black"/>
</svg>
