<svg width="23" height="29" viewBox="0 0 23 29" fill="none" xmlns="http://www.w3.org/2000/svg">
<path d="M21.6767 0.790475C21.4417 0.682143 21.18 0.645102 20.9241 0.683933C20.6682 0.722765 20.4293 0.835765 20.2369 1.00895L18.3693 2.66133L15.8313 0.393765C15.5851 0.173074 15.2661 0.0510254 14.9354 0.0510254C14.6048 0.0510254 14.2858 0.173074 14.0396 0.393765L11.5096 2.66133L8.96807 0.393765C8.72176 0.173311 8.4028 0.0514193 8.07222 0.0514193C7.74165 0.0514193 7.42268 0.173311 7.17637 0.393765L4.63832 2.66133L2.77072 1.0101C2.57777 0.839128 2.33944 0.727669 2.08451 0.689186C1.82959 0.650704 1.56897 0.686845 1.33414 0.793244C1.09931 0.899642 0.900307 1.07175 0.761172 1.28877C0.622037 1.5058 0.548717 1.75846 0.55007 2.01625V26.7801C0.548618 27.0384 0.622031 27.2915 0.761427 27.5088C0.900822 27.7262 1.10022 27.8986 1.33552 28.005C1.57081 28.1115 1.83191 28.1474 2.08723 28.1086C2.34255 28.0698 2.58116 27.9578 2.77417 27.7863L4.63947 26.135L7.17752 28.4049C7.42372 28.6256 7.74272 28.7477 8.07337 28.7477C8.40402 28.7477 8.72302 28.6256 8.96922 28.4049L11.4992 26.1373L14.0407 28.4049C14.287 28.6254 14.606 28.7473 14.9366 28.7473C15.2671 28.7473 15.5861 28.6254 15.8324 28.4049L18.3705 26.135L20.2381 27.7863C20.431 27.9576 20.6694 28.0694 20.9245 28.1081C21.1797 28.1468 21.4405 28.1107 21.6756 28.0043C21.9106 27.8978 22.1098 27.7256 22.249 27.5083C22.3882 27.2911 22.4614 27.0381 22.4599 26.7801V2.01625C22.4635 1.75776 22.3912 1.50388 22.252 1.28602C22.1128 1.06817 21.9128 0.895881 21.6767 0.790475ZM19.2617 25.1277C19.016 24.909 18.6984 24.7881 18.3693 24.7881C18.0403 24.7881 17.7227 24.909 17.4769 25.1277L14.9389 27.3976L12.4031 25.13C12.1568 24.9096 11.8378 24.7877 11.5073 24.7877C11.1767 24.7877 10.8577 24.9096 10.6114 25.13L8.07222 27.4034L5.53302 25.1335C5.28823 24.9146 4.97134 24.7935 4.64292 24.7935C4.31451 24.7935 3.99761 24.9146 3.75282 25.1335L1.89672 26.779V23.1971L1.88982 2.01625L3.75282 3.66748C3.99858 3.88626 4.31617 4.00714 4.64522 4.00714C4.97427 4.00714 5.29186 3.88626 5.53762 3.66748L8.07567 1.39761L10.6114 3.66518C10.8577 3.88564 11.1767 4.00753 11.5073 4.00753C11.8378 4.00753 12.1568 3.88564 12.4031 3.66518L14.9389 1.39761L17.4781 3.66748C17.7229 3.8864 18.0398 4.00744 18.3682 4.00744C18.6966 4.00744 19.0135 3.8864 19.2583 3.66748L21.119 2.01625V19.0345L21.1259 26.7744L19.2617 25.1277Z" fill="black"/>
<path d="M17.876 13.7255H5.13397C4.9557 13.7255 4.78472 13.7963 4.65867 13.9224C4.53261 14.0484 4.46179 14.2194 4.46179 14.3976C4.46179 14.5759 4.53261 14.7468 4.65867 14.8729C4.78472 14.9989 4.9557 15.0697 5.13397 15.0697H17.876C18.0542 15.0697 18.2252 14.9989 18.3513 14.8729C18.4773 14.7468 18.5481 14.5759 18.5481 14.3976C18.5481 14.2194 18.4773 14.0484 18.3513 13.9224C18.2252 13.7963 18.0542 13.7255 17.876 13.7255Z" fill="black"/>
<path d="M11.827 9.694H5.13397C4.9557 9.694 4.78472 9.76482 4.65867 9.89086C4.53261 10.0169 4.46179 10.1879 4.46179 10.3661C4.46179 10.5444 4.53261 10.7153 4.65867 10.8414C4.78472 10.9674 4.9557 11.0382 5.13397 11.0382H11.827C12.0052 11.0382 12.1762 10.9674 12.3023 10.8414C12.4283 10.7153 12.4991 10.5444 12.4991 10.3661C12.4991 10.1879 12.4283 10.0169 12.3023 9.89086C12.1762 9.76482 12.0052 9.694 11.827 9.694Z" fill="black"/>
<path d="M17.876 17.7581H5.13397C4.9557 17.7581 4.78472 17.8289 4.65867 17.955C4.53261 18.081 4.46179 18.252 4.46179 18.4303C4.46179 18.6085 4.53261 18.7795 4.65867 18.9055C4.78472 19.0315 4.9557 19.1024 5.13397 19.1024H17.876C18.0542 19.1024 18.2252 19.0315 18.3513 18.9055C18.4773 18.7795 18.5481 18.6085 18.5481 18.4303C18.5481 18.252 18.4773 18.081 18.3513 17.955C18.2252 17.8289 18.0542 17.7581 17.876 17.7581Z" fill="black"/>
</svg>
