<svg width="32" height="27" viewBox="0 0 32 27" fill="none" xmlns="http://www.w3.org/2000/svg">
<path d="M29.9097 25.3059H29.3922V11.7971C29.9888 11.4149 30.4797 10.8889 30.8199 10.2674C31.1601 9.64598 31.3387 8.94898 31.3391 8.24051C31.3397 8.15993 31.319 8.08063 31.2793 8.01053L27.666 1.68617C27.5394 1.46942 27.358 1.28976 27.14 1.16524C26.922 1.04071 26.6751 0.975691 26.424 0.976696H5.16396C4.91209 0.976942 4.66473 1.04362 4.44687 1.17001C4.229 1.29639 4.04834 1.47801 3.92311 1.69653L0.309811 8.02088C0.270076 8.09098 0.249454 8.17028 0.250011 8.25086C0.25218 8.95758 0.431529 9.65247 0.771653 10.272C1.11178 10.8915 1.60182 11.4159 2.19696 11.7971V25.3059H1.67946C1.56981 25.3215 1.46948 25.3762 1.3969 25.4599C1.32431 25.5435 1.28435 25.6505 1.28435 25.7613C1.28435 25.872 1.32431 25.9791 1.3969 26.0627C1.46948 26.1464 1.56981 26.201 1.67946 26.2166H29.9097C30.0193 26.201 30.1196 26.1464 30.1922 26.0627C30.2648 25.9791 30.3048 25.872 30.3048 25.7613C30.3048 25.6505 30.2648 25.5435 30.1922 25.4599C30.1196 25.3762 30.0193 25.3215 29.9097 25.3059ZM1.19186 8.69586H2.65236C2.71759 8.70516 2.78406 8.70033 2.84727 8.68171C2.91047 8.66308 2.96894 8.6311 3.01871 8.58793C3.06848 8.54475 3.10839 8.49139 3.13574 8.43145C3.1631 8.37151 3.17725 8.30639 3.17725 8.24051C3.17725 8.17462 3.1631 8.10951 3.13574 8.04957C3.10839 7.98963 3.06848 7.93626 3.01871 7.89309C2.96894 7.84991 2.91047 7.81793 2.84727 7.79931C2.78406 7.78069 2.71759 7.77586 2.65236 7.78515H1.48971L4.70971 2.14268C4.75514 2.06353 4.82062 1.99774 4.89955 1.95191C4.97848 1.90609 5.06809 1.88186 5.15936 1.88166H26.424C26.5153 1.88175 26.605 1.90593 26.6839 1.95176C26.7629 1.99759 26.8283 2.06345 26.8737 2.14268L30.0937 7.78515H28.9356C28.8704 7.77586 28.8039 7.78069 28.7407 7.79931C28.6775 7.81793 28.619 7.84991 28.5693 7.89309C28.5195 7.93626 28.4796 7.98963 28.4522 8.04957C28.4249 8.10951 28.4107 8.17462 28.4107 8.24051C28.4107 8.30639 28.4249 8.37151 28.4522 8.43145C28.4796 8.49139 28.5195 8.54475 28.5693 8.58793C28.619 8.6311 28.6775 8.66308 28.7407 8.68171C28.8039 8.70033 28.8704 8.70516 28.9356 8.69586H30.3961C30.2858 9.48861 29.8925 10.2147 29.2888 10.7403C28.6851 11.2658 27.9116 11.5553 27.1111 11.5553C26.3107 11.5553 25.5372 11.2658 24.9335 10.7403C24.3297 10.2147 23.9364 9.48861 23.8262 8.69586H26.9898C27.055 8.70516 27.1215 8.70033 27.1847 8.68171C27.2479 8.66308 27.3064 8.6311 27.3562 8.58793C27.4059 8.54475 27.4458 8.49139 27.4732 8.43145C27.5005 8.37151 27.5147 8.30639 27.5147 8.24051C27.5147 8.17462 27.5005 8.10951 27.4732 8.04957C27.4458 7.98963 27.4059 7.93626 27.3562 7.89309C27.3064 7.84991 27.2479 7.81793 27.1847 7.79931C27.1215 7.78069 27.055 7.77586 26.9898 7.78515H4.59931C4.53408 7.77586 4.46761 7.78069 4.40441 7.79931C4.3412 7.81793 4.28273 7.84991 4.23296 7.89309C4.18319 7.93626 4.14328 7.98963 4.11593 8.04957C4.08858 8.10951 4.07442 8.17462 4.07442 8.24051C4.07442 8.30639 4.08858 8.37151 4.11593 8.43145C4.14328 8.49139 4.18319 8.54475 4.23296 8.58793C4.28273 8.6311 4.3412 8.66308 4.40441 8.68171C4.46761 8.70033 4.53408 8.70516 4.59931 8.69586H7.76181C7.65153 9.48861 7.25824 10.2147 6.6545 10.7403C6.05075 11.2658 5.2773 11.5553 4.47684 11.5553C3.67637 11.5553 2.90292 11.2658 2.29917 10.7403C1.69543 10.2147 1.30214 9.48861 1.19186 8.69586ZM22.851 8.69586C22.7407 9.48861 22.3474 10.2147 21.7436 10.7403C21.1399 11.2658 20.3664 11.5553 19.566 11.5553C18.7655 11.5553 17.9921 11.2658 17.3883 10.7403C16.7846 10.2147 16.3913 9.48861 16.281 8.69586H22.851ZM15.307 8.69586C15.1967 9.48861 14.8034 10.2147 14.1996 10.7403C13.5959 11.2658 12.8224 11.5553 12.022 11.5553C11.2215 11.5553 10.4481 11.2658 9.84432 10.7403C9.24058 10.2147 8.84729 9.48861 8.73701 8.69586H15.307ZM26.0468 25.3059H21.1168V23.7835H26.0468V25.3059ZM26.0468 22.8728H21.1168V14.5361H26.0468V22.8728ZM28.4802 25.3059H26.9576V14.0854C26.9576 13.9634 26.9091 13.8464 26.8229 13.7601C26.7366 13.6739 26.6196 13.6254 26.4976 13.6254H20.6614C20.5394 13.6254 20.4224 13.6739 20.3361 13.7601C20.2498 13.8464 20.2014 13.9634 20.2014 14.0854V25.3105H3.10776V12.2387C4.07275 12.5701 5.12514 12.541 6.07033 12.1567C7.01552 11.7724 7.78959 11.0589 8.24941 10.1482C8.60202 10.8459 9.14127 11.4321 9.80719 11.8417C10.4731 12.2512 11.2396 12.4681 12.0214 12.4681C12.8032 12.4681 13.5697 12.2512 14.2356 11.8417C14.9016 11.4321 15.4408 10.8459 15.7934 10.1482C16.146 10.8459 16.6853 11.4321 17.3512 11.8417C18.0171 12.2512 18.7836 12.4681 19.5654 12.4681C20.3472 12.4681 21.1137 12.2512 21.7796 11.8417C22.4456 11.4321 22.9848 10.8459 23.3374 10.1482C23.7974 11.0588 24.5715 11.7721 25.5166 12.1564C26.4618 12.5406 27.5141 12.5699 28.4791 12.2387L28.4802 25.3059Z" fill="black"/>
<path d="M18.2279 13.6254H5.08573C5.02533 13.6254 4.96551 13.6373 4.9097 13.6604C4.85389 13.6835 4.80318 13.7174 4.76046 13.7601C4.71775 13.8028 4.68387 13.8535 4.66075 13.9093C4.63763 13.9651 4.62573 14.0249 4.62573 14.0853V23.3327C4.62573 23.3931 4.63763 23.4529 4.66075 23.5087C4.68387 23.5645 4.71775 23.6152 4.76046 23.6579C4.80318 23.7007 4.85389 23.7345 4.9097 23.7576C4.96551 23.7808 5.02533 23.7927 5.08573 23.7927H18.2279C18.2883 23.7927 18.3482 23.7808 18.404 23.7576C18.4598 23.7345 18.5105 23.7007 18.5532 23.6579C18.5959 23.6152 18.6298 23.5645 18.6529 23.5087C18.676 23.4529 18.6879 23.3931 18.6879 23.3327V14.0853C18.6879 14.0249 18.676 13.9651 18.6529 13.9093C18.6298 13.8535 18.5959 13.8028 18.5532 13.7601C18.5105 13.7174 18.4598 13.6835 18.404 13.6604C18.3482 13.6373 18.2883 13.6254 18.2279 13.6254ZM17.7679 22.8728H5.54113V14.5361H17.7725L17.7679 22.8728Z" fill="black"/>
</svg>
